<svg width="788" height="368" viewBox="0 0 788 368" fill="none" xmlns="http://www.w3.org/2000/svg">
<g clip-path="url(#clip0_718_8131)">
<path d="M87.2536 366.19L85.9014 365.886C100.979 298.855 138.871 237.986 192.598 194.49C233.216 161.656 281.526 139.697 332.978 130.68C384.43 121.662 437.331 125.884 486.701 142.946C536.07 160.009 580.283 189.351 615.177 228.21C650.071 267.069 674.498 314.166 686.158 365.068L684.807 365.375C652.889 225.282 530.066 127.439 386.122 127.439C244.065 127.439 118.373 227.848 87.2536 366.19Z" fill="#3F3D56"/>
<path d="M728.745 334.282L730.824 349.524L716.27 350.91L718.349 332.204L728.745 334.282Z" fill="#A0616A"/>
<path d="M660.132 125.053C660.132 125.053 661.518 143.759 661.518 144.451C661.518 145.144 651.816 192.948 651.816 192.948C651.816 192.948 637.955 219.275 651.816 218.582C665.677 217.89 661.518 193.641 661.518 193.641L676.073 153.458L669.835 125.053H660.132Z" fill="#A0616A"/>
<path d="M683.003 334.282L680.924 349.524L695.478 350.91L693.399 332.204L683.003 334.282Z" fill="#A0616A"/>
<path d="M667.062 191.563L663.597 196.412C663.597 196.412 661.518 217.197 663.597 224.125C665.676 231.053 669.834 262.922 669.834 265.001C669.834 267.079 670.527 268.465 669.834 269.158C669.141 269.85 667.062 269.85 668.448 271.236C669.834 272.622 669.834 276.779 669.834 276.779V280.243L678.844 331.511C678.844 331.511 673.3 337.746 677.458 337.746C681.616 337.746 696.863 337.746 696.17 330.818L694.784 330.125C694.784 330.125 692.705 284.4 693.398 282.321C694.091 280.243 693.398 276.086 693.398 276.086C693.398 276.086 692.012 274.007 693.398 273.315C694.784 272.622 694.784 267.079 694.784 267.079L701.022 224.818C701.022 224.818 706.566 253.223 710.031 255.994C713.497 258.765 712.804 265.694 712.804 265.694L715.576 326.661C715.576 326.661 712.804 333.589 715.576 334.975C718.348 336.361 730.13 341.21 730.823 334.282C731.516 327.354 734.981 267.079 734.981 264.308C734.981 261.537 734.288 260.151 734.981 258.073C735.674 255.994 734.288 255.994 734.981 255.994C735.674 255.994 733.595 253.916 733.595 252.53V218.582C733.595 218.582 734.288 211.654 734.981 210.269C735.674 208.883 734.288 207.497 734.981 205.419C735.674 203.341 733.595 196.412 733.595 196.412L702.408 188.099L667.062 191.563Z" fill="#0B0E16"/>
<path d="M691.319 346.753C691.319 346.753 694.784 343.289 689.933 343.289C686.818 343.352 683.75 344.06 680.923 345.367L677.458 357.838C677.458 357.838 663.25 369.269 679.19 367.883C695.131 366.498 692.705 367.537 692.705 367.537C692.705 367.537 697.556 366.151 698.249 364.766C698.942 363.38 696.863 343.289 696.863 343.289C696.863 343.289 694.784 348.831 691.319 346.753Z" fill="#0B0E16"/>
<path d="M721.121 346.753C721.121 346.753 717.656 343.289 722.507 343.289C725.621 343.352 728.689 344.06 731.517 345.367L734.982 357.838C734.982 357.838 749.189 369.269 733.249 367.883C717.309 366.498 717.656 367.537 717.656 367.537C717.656 367.537 712.804 366.151 712.111 364.766C711.418 363.38 715.576 343.289 715.576 343.289C715.576 343.289 717.656 348.831 721.121 346.753Z" fill="#0B0E16"/>
<path d="M204.481 122.927H198.311V366.557H204.481V122.927Z" fill="#3F3D56"/>
<path d="M261.422 153.975C261.815 239.166 201.858 308.505 201.858 308.505C201.858 308.505 141.264 239.722 140.871 154.53C140.478 69.3389 200.436 0 200.436 0C200.436 0 261.03 68.7835 261.422 153.975Z" fill="#2C4CC9"/>
<path d="M633.796 265.694H156.283V366.844H633.796V265.694Z" fill="#F2F2F2"/>
<path d="M141.036 276.779L193.015 168.007H608.153L646.964 276.779H141.036Z" fill="#3F3D56"/>
<path d="M463.305 174.935H270.637V238.674H463.305V174.935Z" fill="#F2F2F2"/>
<path d="M283.111 122.974L252.617 186.713H481.324L463.305 122.974H283.111Z" fill="#3F3D56"/>
<path d="M439.741 285.785H287.616V366.844H439.741V285.785Z" fill="#CCCCCC"/>
<path d="M256.083 288.556H174.996V366.844H256.083V288.556Z" fill="#CCCCCC"/>
<path d="M508.007 293.406H466.077V366.844H508.007V293.406Z" fill="#3F3D56"/>
<path d="M788 366.498H0V367.883H788V366.498Z" fill="#3F3D56"/>
<path d="M128.755 205.806H124.684V366.576H128.755V205.806Z" fill="#3F3D56"/>
<path d="M166.331 226.294C166.59 282.511 127.024 328.268 127.024 328.268C127.024 328.268 87.0387 282.878 86.7796 226.661C86.5204 170.444 126.086 124.688 126.086 124.688C126.086 124.688 166.071 170.077 166.331 226.294Z" fill="#2C4CC9"/>
<path opacity="0.1" d="M166.331 226.294C166.59 282.511 127.024 328.268 127.024 328.268C127.024 328.268 87.0387 282.878 86.7796 226.661C86.5204 170.444 126.086 124.688 126.086 124.688C126.086 124.688 166.071 170.077 166.331 226.294Z" fill="#0B0E16"/>
<path d="M75.8254 205.806H71.7539V366.576H75.8254V205.806Z" fill="#3F3D56"/>
<path d="M113.401 226.294C113.66 282.511 74.0947 328.268 74.0947 328.268C74.0947 328.268 34.1091 282.878 33.8499 226.661C33.5907 170.444 73.1561 124.688 73.1561 124.688C73.1561 124.688 113.142 170.077 113.401 226.294Z" fill="#2C4CC9"/>
<path d="M573.847 297.563H553.402V316.615H573.847V297.563Z" fill="#3F3D56"/>
<path d="M601.222 297.563H580.777V316.615H601.222V297.563Z" fill="#3F3D56"/>
<path d="M573.847 323.543H553.402V343.289H573.847V323.543Z" fill="#3F3D56"/>
<path d="M601.222 323.543H580.777V343.289H601.222V323.543Z" fill="#3F3D56"/>
<path d="M304.31 192.376H288.31V207.286H304.31V192.376Z" fill="#3F3D56"/>
<path d="M325.735 192.376H309.734V207.286H325.735V192.376Z" fill="#3F3D56"/>
<path d="M304.31 212.708H288.31V228.161H304.31V212.708Z" fill="#3F3D56"/>
<path d="M325.735 212.708H309.734V228.161H325.735V212.708Z" fill="#3F3D56"/>
<path d="M424.208 192.376H408.208V207.286H424.208V192.376Z" fill="#3F3D56"/>
<path d="M445.632 192.376H429.632V207.286H445.632V192.376Z" fill="#3F3D56"/>
<path d="M424.208 212.708H408.208V228.161H424.208V212.708Z" fill="#3F3D56"/>
<path d="M445.632 212.708H429.632V228.161H445.632V212.708Z" fill="#3F3D56"/>
<path d="M364.606 192.376H348.605V207.286H364.606V192.376Z" fill="#3F3D56"/>
<path d="M386.03 192.376H370.029V207.286H386.03V192.376Z" fill="#3F3D56"/>
<path d="M364.606 212.708H348.605V228.161H364.606V212.708Z" fill="#3F3D56"/>
<path d="M386.03 212.708H370.029V228.161H386.03V212.708Z" fill="#3F3D56"/>
<path d="M485.508 300.846H475.434V310.235H485.508V300.846Z" fill="#F2F2F2"/>
<path d="M498.997 300.846H488.923V310.235H498.997V300.846Z" fill="#F2F2F2"/>
<path d="M485.508 313.648H475.434V323.378H485.508V313.648Z" fill="#F2F2F2"/>
<path d="M498.997 313.648H488.923V323.378H498.997V313.648Z" fill="#F2F2F2"/>
<path d="M502.463 338.092C503.994 338.092 505.235 336.852 505.235 335.321C505.235 333.791 503.994 332.55 502.463 332.55C500.932 332.55 499.69 333.791 499.69 335.321C499.69 336.852 500.932 338.092 502.463 338.092Z" fill="#F2F2F2"/>
<path d="M440.088 294.445H287.616V295.831H440.088V294.445Z" fill="#F2F2F2"/>
<path d="M440.088 300.681H287.616V302.066H440.088V300.681Z" fill="#F2F2F2"/>
<path d="M440.088 306.916H287.616V308.302H440.088V306.916Z" fill="#F2F2F2"/>
<path d="M440.088 313.151H287.616V314.537H440.088V313.151Z" fill="#F2F2F2"/>
<path d="M440.088 319.387H287.616V320.772H440.088V319.387Z" fill="#F2F2F2"/>
<path d="M440.088 325.622H287.616V327.008H440.088V325.622Z" fill="#F2F2F2"/>
<path d="M440.088 331.857H287.616V333.243H440.088V331.857Z" fill="#F2F2F2"/>
<path d="M440.088 338.093H287.616V339.478H440.088V338.093Z" fill="#F2F2F2"/>
<path d="M440.088 344.328H287.616V345.714H440.088V344.328Z" fill="#F2F2F2"/>
<path d="M440.088 350.563H287.616V351.949H440.088V350.563Z" fill="#F2F2F2"/>
<path d="M440.088 356.799H287.616V358.184H440.088V356.799Z" fill="#F2F2F2"/>
<path d="M256.083 294.445H174.996V295.831H256.083V294.445Z" fill="#F2F2F2"/>
<path d="M256.083 300.681H174.996V302.066H256.083V300.681Z" fill="#F2F2F2"/>
<path d="M256.083 306.916H174.996V308.302H256.083V306.916Z" fill="#F2F2F2"/>
<path d="M256.083 313.151H174.996V314.537H256.083V313.151Z" fill="#F2F2F2"/>
<path d="M256.083 319.387H174.996V320.772H256.083V319.387Z" fill="#F2F2F2"/>
<path d="M256.083 325.622H174.996V327.008H256.083V325.622Z" fill="#F2F2F2"/>
<path d="M256.083 331.857H174.996V333.243H256.083V331.857Z" fill="#F2F2F2"/>
<path d="M256.083 338.093H174.996V339.478H256.083V338.093Z" fill="#F2F2F2"/>
<path d="M256.083 344.328H174.996V345.714H256.083V344.328Z" fill="#F2F2F2"/>
<path d="M256.083 350.563H174.996V351.949H256.083V350.563Z" fill="#F2F2F2"/>
<path d="M256.083 356.799H174.996V358.184H256.083V356.799Z" fill="#F2F2F2"/>
<path d="M607.806 223.778C638.81 223.778 663.943 198.654 663.943 167.661C663.943 136.668 638.81 111.543 607.806 111.543C576.802 111.543 551.669 136.668 551.669 167.661C551.669 198.654 576.802 223.778 607.806 223.778Z" fill="#2C4CC9"/>
<path d="M643.152 162.118H613.351V132.327H602.262V162.118H572.461V173.203H602.262V202.994H613.351V173.203H643.152V162.118Z" fill="white"/>
<path d="M676.072 70.3204C686.024 70.3204 694.091 62.2557 694.091 52.3073C694.091 42.3589 686.024 34.2942 676.072 34.2942C666.12 34.2942 658.053 42.3589 658.053 52.3073C658.053 62.2557 666.12 70.3204 676.072 70.3204Z" fill="#A0616A"/>
<path d="M669.835 65.4709C669.835 65.4709 672.607 79.3271 672.607 81.4055C672.607 83.484 684.389 89.7193 684.389 89.7193L697.557 73.0918C697.557 73.0918 689.24 61.314 689.24 58.5427L669.835 65.4709Z" fill="#A0616A"/>
<path d="M680.23 83.4839C680.23 83.4839 674.19 81.8767 672.359 79.2162C672.359 79.2162 653.201 98.033 653.201 101.497L668.448 128.517C668.448 128.517 668.448 138.216 669.834 138.909C671.221 139.602 669.834 138.909 669.834 141.68C669.834 144.451 665.676 162.465 667.062 165.236C668.448 168.007 669.834 165.929 668.448 170.085C667.062 174.242 663.597 196.412 663.597 196.412C663.597 196.412 676.072 192.255 694.091 199.184C712.111 206.112 733.595 196.412 733.595 196.412C733.595 196.412 728.051 183.942 729.437 179.785C730.823 175.628 725.972 168.007 725.972 168.007L722.506 104.268C722.506 104.268 727.358 75.863 723.892 74.4773L716.962 71.7061L694.768 68.9792C694.768 68.9792 689.24 82.7911 680.23 83.4839Z" fill="#D0CDE1"/>
<path d="M660.132 96.6475L653.201 101.497C653.201 101.497 649.736 111.889 653.201 116.739C656.667 121.589 658.053 128.517 658.053 128.517L671.914 127.131L660.132 96.6475Z" fill="#D0CDE1"/>
<path d="M711.417 102.883C711.417 102.883 707.404 113.199 708.242 123.406C708.396 125.234 709.011 126.992 710.031 128.517L660.863 151.851C660.863 151.851 638.647 154.151 644.191 163.85C649.736 173.549 669.834 159 669.834 159C669.834 159 722.506 151.379 726.665 143.759C730.823 136.138 733.595 104.268 733.595 104.268L711.417 102.883Z" fill="#A0616A"/>
<path d="M662.314 33.2705L659.188 32.0196C659.188 32.0196 665.724 24.8268 674.817 25.4523L672.259 22.6378C672.259 22.6378 678.511 20.136 684.194 26.7032C687.181 30.1555 690.638 34.2134 692.792 38.7846H696.14L694.743 41.8597L699.633 44.9349L694.614 44.3825C695.089 47.0374 694.926 49.7671 694.139 52.3468L694.273 54.7774C694.273 54.7774 688.456 45.7795 688.456 44.5286V47.6559C688.456 47.6559 685.33 44.8413 685.33 42.965L683.625 45.1541L682.773 41.7141L672.259 45.1541L673.964 42.3395L667.429 43.2777L669.986 39.8377C669.986 39.8377 662.598 43.9031 662.314 47.3432C662.03 50.7832 658.336 55.1613 658.336 55.1613L656.631 52.034C656.631 52.034 654.074 37.9614 662.314 33.2705Z" fill="#0B0E16"/>
<path d="M713.497 74.4773H723.893C723.893 74.4773 731.516 75.8629 733.595 89.7192C735.675 103.575 737.754 107.039 735.675 107.039C733.595 107.039 708.646 106.347 708.646 105.654C708.646 104.961 713.497 74.4773 713.497 74.4773Z" fill="#D0CDE1"/>
</g>
<defs>
<clipPath id="clip0_718_8131">
<rect width="788" height="368" fill="white"/>
</clipPath>
</defs>
</svg>
