<svg width="32" height="32" viewBox="0 0 32 32" fill="none" xmlns="http://www.w3.org/2000/svg">
<path d="M30.7943 13.2175H17.7408C17.1652 13.2175 16.6992 13.6835 16.6992 14.2591V18.4321C16.6992 19.0077 17.1652 19.4736 17.7408 19.4736H25.0932C24.2915 21.5636 22.784 23.3109 20.8722 24.421L24.0037 29.8479C29.0264 26.9426 32.0003 21.8377 32.0003 16.1297C32.0003 15.3143 31.9386 14.7319 31.8221 14.0809C31.7262 13.5807 31.2945 13.2175 30.7943 13.2175Z" fill="#167EE6"/>
<path d="M15.9997 25.7367C12.4023 25.7367 9.26399 23.7701 7.57834 20.8647L2.15137 23.9894C4.91282 28.7791 10.0863 31.9996 15.9997 31.9996C18.9051 31.9996 21.6391 31.2185 24.0032 29.8549V29.848L20.8717 24.4211C19.4327 25.257 17.7745 25.7367 15.9997 25.7367Z" fill="#12B347"/>
<path d="M23.9966 29.8552V29.8484L20.8651 24.4214C19.433 25.2505 17.7747 25.737 16 25.737V32C18.9053 32 21.6394 31.2188 23.9966 29.8552Z" fill="#0F993E"/>
<path d="M6.26295 16C6.26295 14.2252 6.74946 12.567 7.57858 11.1349L2.1516 8.01025C0.781155 10.3606 0 13.0878 0 16C0 18.9122 0.781155 21.6394 2.1516 23.9897L7.57858 20.8651C6.7426 19.433 6.26295 17.7747 6.26295 16Z" fill="#FFD500"/>
<path d="M15.9997 6.26296C18.3432 6.26296 20.5017 7.09893 22.1805 8.48308C22.5985 8.8257 23.2015 8.79829 23.5783 8.42141L26.5316 5.46809C26.9633 5.0364 26.9291 4.33062 26.47 3.93319C23.6537 1.48009 19.9878 0 15.9997 0C10.0863 0 4.91282 3.22056 2.15137 8.01028L7.57834 11.1349C9.26399 8.22955 12.4023 6.26296 15.9997 6.26296Z" fill="#FF4B26"/>
</svg>
