<svg width="19" height="32" viewBox="0 0 19 32" fill="none" xmlns="http://www.w3.org/2000/svg">
<path d="M18.2779 12.9687L17.6979 17.4284C17.6738 17.6319 17.5664 17.8204 17.3961 17.9582C17.2257 18.0961 17.0043 18.1736 16.7739 18.176H11.531L11.5048 31.3978C11.5066 31.5545 11.4388 31.7055 11.3162 31.8182C11.1936 31.9309 11.0259 31.9962 10.8495 32H5.53783C5.44951 32.0001 5.36209 31.9843 5.28083 31.9536C5.19956 31.9229 5.12611 31.878 5.0649 31.8214C5.00369 31.7649 4.95598 31.698 4.92463 31.6247C4.89328 31.5514 4.87894 31.4732 4.88247 31.3949V18.176H0.950355C0.826853 18.1749 0.704815 18.1521 0.591207 18.1091C0.4776 18.0661 0.374649 18.0036 0.288233 17.9253C0.201817 17.847 0.13363 17.7543 0.0875638 17.6525C0.0414978 17.5508 0.0184556 17.442 0.0197533 17.3324L9.22819e-05 12.8727C-0.00164096 12.7627 0.0210566 12.6534 0.0668878 12.5512C0.112719 12.449 0.180787 12.3558 0.267203 12.2769C0.35362 12.198 0.456693 12.135 0.570536 12.0915C0.684379 12.048 0.80676 12.0248 0.930694 12.0233H4.88247V7.71782C4.88247 2.72 8.22477 0 13.1268 0H17.1441C17.2683 0.00113802 17.3911 0.0240353 17.5053 0.0673784C17.6195 0.110721 17.723 0.173657 17.8097 0.252577C17.8965 0.331496 17.9649 0.424846 18.0109 0.527273C18.0569 0.629699 18.0797 0.739185 18.078 0.849454V4.60218C18.0797 4.71245 18.0569 4.82194 18.0109 4.92436C17.9649 5.02679 17.8965 5.12014 17.8097 5.19906C17.723 5.27798 17.6195 5.34092 17.5053 5.38426C17.3911 5.4276 17.2683 5.4505 17.1441 5.45164H14.68C12.016 5.45164 11.4983 6.61527 11.4983 8.29673V12.0233H17.3538C17.487 12.0248 17.6183 12.0512 17.7391 12.101C17.8599 12.1507 17.9675 12.2226 18.0548 12.3119C18.1421 12.4012 18.2071 12.5059 18.2455 12.6191C18.284 12.7323 18.295 12.8515 18.2779 12.9687Z" fill="#1877F2"/>
</svg>
